<?xml version="1.0" standalone="no"?>
<!DOCTYPE svg PUBLIC "-//W3C//DTD SVG 20010904//EN"
 "http://www.w3.org/TR/2001/REC-SVG-20010904/DTD/svg10.dtd">
<svg version="1.0" xmlns="http://www.w3.org/2000/svg"
 width="135px" height="58px" viewBox="0 0 322.000000 124.000000"
 preserveAspectRatio="xMidYMid meet">

<g transform="translate(0.000000,124.000000) scale(0.100000,-0.100000)"
fill="#000000" stroke="none">
<path d="M2983 1161 c-46 -14 -83 -31 -83 -37 0 -6 9 -19 20 -29 19 -17 20
-31 20 -362 0 -336 0 -345 -20 -350 -51 -13 -10 -23 96 -23 74 0 113 4 109 10
-3 6 -12 10 -20 10 -24 0 -27 55 -23 439 2 243 0 371 -7 370 -5 -1 -47 -13
-92 -28z"/>
<path d="M10 1101 c0 -5 17 -11 39 -15 67 -10 66 -4 66 -353 l0 -315 -24 -19
c-13 -10 -34 -19 -47 -19 -12 0 -26 -5 -29 -11 -5 -7 64 -10 236 -7 224 3 249
6 308 26 150 54 241 154 271 296 40 194 -82 359 -302 411 -70 16 -518 22 -518
6z m486 -62 c109 -52 156 -142 158 -299 0 -120 -21 -193 -78 -257 -51 -58
-104 -82 -178 -83 -68 0 -102 13 -117 47 -7 16 -11 125 -11 323 l0 299 28 4
c58 8 138 -5 198 -34z"/>
<path d="M985 853 c-44 -18 -84 -34 -89 -36 -5 -2 0 -23 12 -48 19 -39 22 -62
22 -175 0 -160 -7 -205 -32 -212 -10 -2 -18 -8 -18 -13 0 -5 59 -9 130 -9 74
0 130 4 130 9 0 6 -15 11 -32 13 l-33 3 -3 179 c-3 186 1 206 39 206 11 0 35
-9 55 -19 55 -30 104 -3 104 56 0 42 -30 73 -72 73 -25 0 -42 -11 -79 -49
l-48 -50 -3 52 -3 52 -80 -32z"/>
<path d="M1405 864 c-33 -7 -75 -13 -92 -14 -39 0 -43 -12 -8 -28 l25 -12 0
-175 c0 -135 4 -183 16 -214 32 -80 127 -93 226 -32 l51 32 -6 -37 c-6 -33 -4
-36 16 -31 167 39 189 49 147 62 -19 6 -20 15 -20 237 0 207 -2 230 -16 224
-9 -3 -48 -11 -88 -17 -103 -16 -105 -17 -68 -39 l32 -20 0 -184 0 -184 -29
-4 c-17 -2 -45 0 -63 6 -50 17 -58 51 -56 259 0 98 -1 179 -3 181 -2 1 -31 -3
-64 -10z"/>
<path d="M1920 847 c-41 -17 -77 -32 -79 -33 -2 -2 6 -18 18 -37 20 -33 21
-46 21 -341 0 -293 -1 -307 -20 -326 -11 -11 -20 -22 -20 -25 0 -3 59 -5 130
-5 131 0 162 9 93 26 l-38 9 -3 121 -3 121 75 -5 c64 -4 81 -1 127 20 112 52
171 147 172 273 0 59 -5 83 -24 121 -55 107 -162 143 -267 90 -28 -14 -53 -30
-57 -36 -13 -21 -25 -9 -25 25 0 42 -2 42 -100 2z m249 -77 c52 -36 75 -93 75
-185 0 -63 -5 -90 -22 -125 -34 -72 -100 -99 -151 -64 -42 30 -51 71 -51 238
0 139 2 155 18 160 35 10 101 -2 131 -24z"/>
<path d="M2560 847 c-57 -33 -120 -112 -120 -148 0 -20 22 -23 70 -10 22 6 24
11 21 52 -3 57 14 74 64 65 59 -11 75 -36 75 -111 0 -60 -2 -66 -24 -75 -13
-5 -61 -26 -106 -46 -107 -49 -129 -86 -94 -159 33 -70 123 -82 188 -24 l34
29 30 -29 c52 -53 112 -53 163 -1 37 36 38 59 4 52 -51 -9 -55 5 -55 192 0
192 -4 205 -67 231 -60 25 -122 19 -183 -18z m110 -321 c0 -92 -8 -104 -55
-86 -31 12 -50 50 -41 84 5 19 74 82 94 86 1 0 2 -38 2 -84z"/>
</g>
</svg>
